<?xml version="1.0" encoding="UTF-8"?>
<!DOCTYPE svg PUBLIC "-//W3C//DTD SVG 1.1//EN" "http://www.w3.org/Graphics/SVG/1.1/DTD/svg11.dtd">
<!-- Creator: CorelDRAW X8 -->
<svg xmlns="http://www.w3.org/2000/svg" xml:space="preserve" width="210mm" height="297mm" version="1.1" style="shape-rendering:geometricPrecision; text-rendering:geometricPrecision; image-rendering:optimizeQuality; fill-rule:evenodd; clip-rule:evenodd"
viewBox="0 0 21000 29700"
 xmlns:xlink="http://www.w3.org/1999/xlink">
 <defs>
  <style type="text/css">
   <![CDATA[
    .fil0 {fill:#3688FF}
    .fil1 {fill:#5F6379}
   ]]>
  </style>
 </defs>
 <g id="Layer_x0020_1">
  <metadata id="CorelCorpID_0Corel-Layer"/>
  <path class="fil0" d="M10500 25433c-5835,0 -10583,-4748 -10583,-10583 0,-5835 4748,-10583 10583,-10583 5835,0 10583,4748 10583,10583 0,5835 -4748,10583 -10583,10583zm0 -19403c-4864,0 -8820,3956 -8820,8820 0,4864 3956,8820 8820,8820 4864,0 8820,-3956 8820,-8820 0,-4864 -3956,-8820 -8820,-8820z"/>
  <path class="fil1" d="M9359 18581c-225,0 -450,-87 -624,-258 -345,-346 -345,-904 0,-1247l2464 -2464 -2462 -2464c-345,-345 -345,-903 0,-1246 345,-345 904,-345 1247,0l3086 3086c345,345 345,903 0,1246l-3086 3089c-172,171 -399,258 -625,258z"/>
 </g>
</svg>
