<?xml version="1.0" encoding="UTF-8" standalone="no"?>
<!-- Uploaded to: SVG Repo, www.svgrepo.com, Generator: SVG Repo Mixer Tools -->

<svg
   width="20.00005"
   height="19.99995"
   viewBox="0 0 0.60000148 0.5999985"
   fill="none"
   version="1.1"
   id="svg1"
   sodipodi:docname="checkbox-checked-hover.svg"
   inkscape:version="1.3 (0e150ed6c4, 2023-07-21)"
   xmlns:inkscape="http://www.inkscape.org/namespaces/inkscape"
   xmlns:sodipodi="http://sodipodi.sourceforge.net/DTD/sodipodi-0.dtd"
   xmlns="http://www.w3.org/2000/svg"
   xmlns:svg="http://www.w3.org/2000/svg">
  <defs
     id="defs1" />
  <sodipodi:namedview
     id="namedview1"
     pagecolor="#ffffff"
     bordercolor="#000000"
     borderopacity="0.25"
     inkscape:showpageshadow="2"
     inkscape:pageopacity="0.0"
     inkscape:pagecheckerboard="0"
     inkscape:deskcolor="#d1d1d1"
     inkscape:zoom="16.26"
     inkscape:cx="8.2103321"
     inkscape:cy="13.253383"
     inkscape:window-width="1920"
     inkscape:window-height="1009"
     inkscape:window-x="-8"
     inkscape:window-y="-8"
     inkscape:window-maximized="1"
     inkscape:current-layer="svg1" />
  <g
     id="Interface / Checkbox_Check"
     transform="matrix(0.1524554,0,0,0.14775127,-0.15150425,-0.10364854)">
    <path
       id="Vector"
       d="M 2.0889312,2.7319423 2.7433999,3.4098938 3.8341804,2.0539905 M 1.2163064,3.8167103 V 1.6472647 c 0,-0.2531268 0,-0.379784 0.047556,-0.4764644 0.041829,-0.085044 0.1085283,-0.1541368 0.190627,-0.19746702 0.093332,-0.049262 0.2156016,-0.049262 0.4599606,-0.049262 h 2.0942998 c 0.2443565,0 0.3663713,0 0.4596984,0.049262 0.082092,0.04333 0.1490225,0.11242252 0.190843,0.19746702 0.047512,0.096586 0.047512,0.223089 0.047512,0.4757209 v 2.170957 c 0,0.2526279 0,0.3789527 -0.047512,0.4755382 -0.041821,0.085038 -0.1087511,0.1542564 -0.190843,0.1975774 -0.09324,0.049218 -0.2151891,0.049218 -0.4590661,0.049218 h -2.09565 c -0.2438813,0 -0.3660029,0 -0.4592428,-0.049218 C 1.3723906,4.4472728 1.3056915,4.378054 1.2638622,4.2930164 1.2163063,4.1963401 1.2163063,4.0698345 1.2163064,3.8167103 Z"
       stroke="#000000"
       stroke-width="0.444072"
       stroke-linecap="round"
       stroke-linejoin="round" />
    <path
       style="fill:#a58989;fill-opacity:1;stroke-width:0.00655452"
       d="m 2.7070615,1.1534296 c 0,-0.00957 -1.0528536,-0.017093 -1.1162519,0.00916 -0.062676,5.957e-4 -0.1728013,0.091291 -0.1553737,0.230828 -0.00111,0.050455 -0.00572,1.6650779 -0.00248,2.5092525 0.00637,0.099505 -0.00931,0.2150498 0.029695,0.3092559 0.037907,0.071543 0.1407165,0.1123939 0.2196026,0.1056562 0.8345938,0.00612 2.3312008,-0.00573 2.481782,-0.00362 0.074571,-4.597e-4 0.1549382,-0.00501 0.2023866,-0.021837 C 4.4540851,4.2481882 4.481528,4.1817091 4.4841976,4.0896359 4.5189526,3.2799586 4.4951716,2.4419291 4.4909476,1.611432 4.4880076,1.514854 4.4921476,1.4498653 4.4850276,1.3992244 4.4916476,1.2727188 4.4293156,1.1688786 4.315607,1.1594414 4.346988,1.1384244 2.7070566,1.1478784 2.7070566,1.1534514 Z m 1.1271189,0.6813003 c 0.058636,-0.00776 0.1157271,0.017272 0.1549131,0.062555 0.055928,0.050594 0.06609,0.1305477 0.059206,0.2025699 C 4.0167451,2.1887133 3.9474653,2.256363 3.894148,2.3314667 3.5620591,2.7472139 3.2305654,3.1635548 2.8900634,3.5719052 2.8376122,3.6385308 2.7426001,3.6408083 2.6680565,3.6225744 2.5900652,3.5895111 2.5422898,3.5122084 2.4795995,3.4570814 2.2882801,3.2584983 2.0926719,3.0638896 1.9099056,2.856765 1.8637201,2.8042821 1.8758093,2.7271839 1.8811771,2.662573 1.9094192,2.5652242 2.0085281,2.4959777 2.1059493,2.5087465 2.194655,2.5044166 2.2514512,2.588944 2.3120749,2.6425528 2.4514451,2.7842 2.58888,2.9279511 2.7274002,3.0705399 2.7915322,3.0041973 2.8481358,2.9221848 2.9093727,2.849816 3.1664418,2.5320873 3.4191393,2.2103304 3.6803744,1.8964246 3.7182094,1.8546436 3.7703504,1.8274286 3.826533,1.8347686 l 0.00644,-3.39e-5 0.00116,-6.1e-6 z"
       id="path71"
       sodipodi:nodetypes="scccccccccccsscccccccccccccccccc" />
  </g>
</svg>
