<?xml version="1.0" encoding="UTF-8" standalone="no"?>
<!-- Uploaded to: SVG Repo, www.svgrepo.com, Generator: SVG Repo Mixer Tools -->

<svg
   width="20"
   height="20"
   viewBox="0 0 0.59999999 0.59999999"
   fill="none"
   version="1.1"
   id="svg1"
   sodipodi:docname="checkbox-unchecked-hover.svg"
   inkscape:version="1.3 (0e150ed6c4, 2023-07-21)"
   xmlns:inkscape="http://www.inkscape.org/namespaces/inkscape"
   xmlns:sodipodi="http://sodipodi.sourceforge.net/DTD/sodipodi-0.dtd"
   xmlns="http://www.w3.org/2000/svg"
   xmlns:svg="http://www.w3.org/2000/svg">
  <defs
     id="defs1" />
  <sodipodi:namedview
     id="namedview1"
     pagecolor="#ffffff"
     bordercolor="#000000"
     borderopacity="0.25"
     inkscape:showpageshadow="2"
     inkscape:pageopacity="0.0"
     inkscape:pagecheckerboard="0"
     inkscape:deskcolor="#d1d1d1"
     inkscape:zoom="8"
     inkscape:cx="0.6875"
     inkscape:cy="-1.8125"
     inkscape:window-width="1920"
     inkscape:window-height="1009"
     inkscape:window-x="-8"
     inkscape:window-y="-8"
     inkscape:window-maximized="1"
     inkscape:current-layer="svg1" />
  <g
     id="Interface / Checkbox_Unchecked"
     transform="matrix(0.03332465,0,0,0.03332465,-0.09989579,-0.09989579)">
    <path
       id="Vector"
       d="m 4,7.2002 v 9.6 c 0,1.1201 0,1.6799 0.21799,2.1077 0.19174,0.3763 0.49748,0.6826 0.87381,0.8743 C 5.5192,20 6.07899,20 7.19691,20 h 9.60619 c 1.1179,0 1.6769,0 2.1043,-0.2178 0.3763,-0.1917 0.6831,-0.498 0.8748,-0.8743 C 20,18.4805 20,17.9215 20,16.8036 V 7.19691 C 20,6.07899 20,5.5192 19.7822,5.0918 19.5905,4.71547 19.2837,4.40973 18.9074,4.21799 18.4796,4 17.9203,4 16.8002,4 h -9.6 C 6.08009,4 5.51962,4 5.0918,4.21799 4.71547,4.40973 4.40973,4.71547 4.21799,5.0918 4,5.51962 4,6.08009 4,7.2002 Z"
       stroke="#000000"
       stroke-width="2"
       stroke-linecap="round"
       stroke-linejoin="round" />
  </g>
  <path
     style="fill:#a58989;fill-opacity:1;stroke-width:0.000990506"
     d="m 0.2612889,0.06574931 c -0.057316,3.29e-4 -0.11466203,-2.612e-4 -0.171954,0.0013578 -0.01282,0.00358 -0.02416399,0.01615999 -0.02253199,0.03002199 -0.001574,0.12513601 -0.0015406,0.25029135 -0.0010412,0.37543496 9.808e-4,0.01476 -0.00193,0.03052 0.00408,0.044486 0.00584,0.0106 0.01769999,0.01716 0.02985999,0.01616 0.128566,9.0639e-4 0.25714153,6.634e-4 0.38570836,-2.48e-5 0.01012,-9.324e-4 0.020944,0.001398 0.03062,-0.00224 0.0113,-0.00518 0.01978,-0.0172 0.01822,-0.02993 0.001491,-0.12311004 0.001132,-0.24623993 4.822e-4,-0.36935596 -4.526e-4,-0.01432 3.298e-4,-0.028776 -0.001121,-0.04301397 -0.00374,-0.01318 -0.01704,-0.02363399 -0.031098,-0.02192399 -0.080398,-0.0011926 -0.16081404,-9.274e-4 -0.24121833,-9.754e-4 z"
     id="path1" />
</svg>
