<?xml version="1.0" encoding="UTF-8"?>
<!DOCTYPE svg PUBLIC "-//W3C//DTD SVG 1.1//EN" "http://www.w3.org/Graphics/SVG/1.1/DTD/svg11.dtd">
<!-- Creator: CorelDRAW X8 -->
<svg xmlns="http://www.w3.org/2000/svg" xml:space="preserve" width="2480px" height="3508px" version="1.1" style="shape-rendering:geometricPrecision; text-rendering:geometricPrecision; image-rendering:optimizeQuality; fill-rule:evenodd; clip-rule:evenodd"
viewBox="0 0 24800 35074"
 xmlns:xlink="http://www.w3.org/1999/xlink">
 <defs>
  <style type="text/css">
   <![CDATA[
    .fil0 {fill:#3688FF}
    .fil1 {fill:#5F6379}
   ]]>
  </style>
 </defs>
 <g id="Layer_x0020_1">
  <metadata id="CorelCorpID_0Corel-Layer"/>
  <path class="fil0" d="M12400 30036c-6891,0 -12498,-5608 -12498,-12499 0,-6891 5607,-12498 12498,-12498 6891,0 12498,5607 12498,12498 0,6891 -5607,12499 -12498,12499zm0 -22915c-5744,0 -10416,4672 -10416,10416 0,5744 4672,10416 10416,10416 5744,0 10416,-4672 10416,-10416 0,-5744 -4672,-10416 -10416,-10416z"/>
  <path class="fil1" d="M7857 16664c0,-266 103,-532 306,-737 407,-407 1066,-407 1472,0l2909 2910 2910 -2907c408,-408 1067,-408 1472,0 408,407 408,1066 0,1472l-3645 3644c-407,408 -1066,408 -1471,0l-3647 -3644c-203,-203 -306,-471 -306,-738z"/>
 </g>
</svg>
