<?xml version="1.0" encoding="UTF-8" standalone="no"?>
<!-- Uploaded to: SVG Repo, www.svgrepo.com, Generator: SVG Repo Mixer Tools -->

<svg
   width="19.999998"
   height="20"
   viewBox="0 0 0.59999995 0.60000001"
   fill="none"
   version="1.1"
   id="svg1"
   sodipodi:docname="checkbox-unchecked-svgrepo-com.svg"
   inkscape:version="1.3 (0e150ed6c4, 2023-07-21)"
   xmlns:inkscape="http://www.inkscape.org/namespaces/inkscape"
   xmlns:sodipodi="http://sodipodi.sourceforge.net/DTD/sodipodi-0.dtd"
   xmlns="http://www.w3.org/2000/svg"
   xmlns:svg="http://www.w3.org/2000/svg">
  <defs
     id="defs1" />
  <sodipodi:namedview
     id="namedview1"
     pagecolor="#ffffff"
     bordercolor="#000000"
     borderopacity="0.25"
     inkscape:showpageshadow="2"
     inkscape:pageopacity="0.0"
     inkscape:pagecheckerboard="0"
     inkscape:deskcolor="#d1d1d1"
     inkscape:zoom="11.497556"
     inkscape:cx="-5.8708128"
     inkscape:cy="18.047313"
     inkscape:window-width="1920"
     inkscape:window-height="1009"
     inkscape:window-x="-8"
     inkscape:window-y="-8"
     inkscape:window-maximized="1"
     inkscape:current-layer="svg1" />
  <g
     id="Interface / Checkbox_Unchecked"
     transform="matrix(0.03332465,0,0,0.03332465,-0.09989579,-0.09989579)">
    <path
       id="Vector"
       d="m 4,7.2002 v 9.6 c 0,1.1201 0,1.6799 0.21799,2.1077 0.19174,0.3763 0.49748,0.6826 0.87381,0.8743 C 5.5192,20 6.07899,20 7.19691,20 h 9.60619 c 1.1179,0 1.6769,0 2.1043,-0.2178 0.3763,-0.1917 0.6831,-0.498 0.8748,-0.8743 C 20,18.4805 20,17.9215 20,16.8036 V 7.19691 C 20,6.07899 20,5.5192 19.7822,5.0918 19.5905,4.71547 19.2837,4.40973 18.9074,4.21799 18.4796,4 17.9203,4 16.8002,4 h -9.6 C 6.08009,4 5.51962,4 5.0918,4.21799 4.71547,4.40973 4.40973,4.71547 4.21799,5.0918 4,5.51962 4,6.08009 4,7.2002 Z"
       stroke="#000000"
       stroke-width="2"
       stroke-linecap="round"
       stroke-linejoin="round" />
  </g>
</svg>
